<?xml version="1.0" encoding="UTF-8" standalone="no"?>
<svg
   xmlns:dc="http://purl.org/dc/elements/1.1/"
   xmlns:cc="http://creativecommons.org/ns#"
   xmlns:rdf="http://www.w3.org/1999/02/22-rdf-syntax-ns#"
   xmlns:svg="http://www.w3.org/2000/svg"
   xmlns="http://www.w3.org/2000/svg"
   xmlns:sodipodi="http://sodipodi.sourceforge.net/DTD/sodipodi-0.dtd"
   xmlns:inkscape="http://www.inkscape.org/namespaces/inkscape"
   aria-hidden="true"
   data-prefix="fas"
   data-icon="layer-group"
   class="svg-inline--fa fa-layer-group fa-w-16"
   role="img"
   width="22"
   height="30"
   viewBox="0 0 512 512"
   version="1.1"
   id="svg862"
   sodipodi:docname="ontop_active.svg"
   inkscape:version="0.92.2 2405546, 2018-03-11">
  <metadata
     id="metadata868">
    <rdf:RDF>
      <cc:Work
         rdf:about="">
        <dc:format>image/svg+xml</dc:format>
        <dc:type
           rdf:resource="http://purl.org/dc/dcmitype/StillImage" />
      </cc:Work>
    </rdf:RDF>
  </metadata>
  <defs
     id="defs866" />
  <sodipodi:namedview
     pagecolor="#ffffff"
     bordercolor="#666666"
     borderopacity="1"
     objecttolerance="10"
     gridtolerance="10"
     guidetolerance="10"
     inkscape:pageopacity="0"
     inkscape:pageshadow="2"
     inkscape:window-width="1248"
     inkscape:window-height="1316"
     id="namedview864"
     showgrid="false"
     inkscape:zoom="25.573695"
     inkscape:cx="12.197597"
     inkscape:cy="10.920679"
     inkscape:window-x="16"
     inkscape:window-y="58"
     inkscape:window-maximized="0"
     inkscape:current-layer="svg862" />
  <path
     d="m 499.59,219.00951 -58.09,-26.33 -161.64,73.27 c -7.56,3.43 -15.59,5.17 -23.86,5.17 -8.27,0 -16.29,-1.74 -23.86,-5.17 l -161.63,-73.27 -58.1,26.33 c -16.55,7.5 -16.55,32.5 0,40 l 232.94,105.59 c 6.8,3.08 14.49,3.08 21.29,0 l 232.95,-105.59 c 16.55,-7.5 16.55,-32.5 0,-40 z"
     id="path860"
     inkscape:connector-curvature="0"
     style="fill:#272822;stroke:#27282f;stroke-opacity:0.94117647;fill-opacity:0.66666669"
     sodipodi:nodetypes="cccscccccccc" />
  <g
     inkscape:groupmode="layer"
     id="layer1"
     inkscape:label="Layer 1">
    <path
       inkscape:connector-curvature="0"
       style="fill:#272822;stroke-width:1"
       d="m 14.447707,125.12949 232.939993,105.67 c 6.80002,3.08999 14.49,3.08999 21.29001,0 l 232.94006,-105.67 c 16.5499,-7.51 16.5499,-32.520003 0,-40.030003 L 268.68772,-20.580518 c -6.76032,-3.089956 -14.52969,-3.089956 -21.29001,0 L 14.447707,85.089487 c -16.5499997,7.51 -16.5499997,32.530003 0,40.040003 z"
       id="path860-3"
       sodipodi:nodetypes="ccccccccc" />
    <path
       inkscape:connector-curvature="0"
       style="fill:#272822;stroke-width:1;fill-opacity:0.66666669"
       d="m 499.43071,351.09845 -57.86998,-26.23001 -161.86001,73.37002 c -7.56,3.42998 -15.59,5.16999 -23.86001,5.16999 -8.26999,0 -16.29,-1.7401 -23.85999,-5.16999 l -161.849995,-73.37002 -57.88,26.23001 c -16.5500002,7.49999 -16.5500002,32.5 0,40 l 232.939985,105.59 c 6.80002,3.08 14.49,3.08 21.29001,0 l 232.94999,-105.59 c 16.55,-7.5 16.55,-32.50001 0,-40 z"
       id="path860-3-6"
       sodipodi:nodetypes="cccscccccccc" />
  </g>
</svg>
