<?xml version="1.0" encoding="UTF-8" standalone="no"?>
<svg
   xmlns:dc="http://purl.org/dc/elements/1.1/"
   xmlns:cc="http://creativecommons.org/ns#"
   xmlns:rdf="http://www.w3.org/1999/02/22-rdf-syntax-ns#"
   xmlns:svg="http://www.w3.org/2000/svg"
   xmlns="http://www.w3.org/2000/svg"
   xmlns:sodipodi="http://sodipodi.sourceforge.net/DTD/sodipodi-0.dtd"
   xmlns:inkscape="http://www.inkscape.org/namespaces/inkscape"
   aria-hidden="true"
   data-prefix="fas"
   data-icon="layer-group"
   class="svg-inline--fa fa-layer-group fa-w-16"
   role="img"
   width="22"
   height="30"
   viewBox="0 0 512 512"
   version="1.1"
   id="svg862"
   sodipodi:docname="ontop_inactive.svg"
   inkscape:version="0.92.2 2405546, 2018-03-11">
  <metadata
     id="metadata868">
    <rdf:RDF>
      <cc:Work
         rdf:about="">
        <dc:format>image/svg+xml</dc:format>
        <dc:type
           rdf:resource="http://purl.org/dc/dcmitype/StillImage" />
        <dc:title></dc:title>
      </cc:Work>
    </rdf:RDF>
  </metadata>
  <defs
     id="defs866" />
  <sodipodi:namedview
     pagecolor="#ffffff"
     bordercolor="#666666"
     borderopacity="1"
     objecttolerance="10"
     gridtolerance="10"
     guidetolerance="10"
     inkscape:pageopacity="0"
     inkscape:pageshadow="2"
     inkscape:window-width="2520"
     inkscape:window-height="1316"
     id="namedview864"
     showgrid="false"
     inkscape:zoom="25.573695"
     inkscape:cx="13.140867"
     inkscape:cy="14.048893"
     inkscape:window-x="16"
     inkscape:window-y="58"
     inkscape:window-maximized="0"
     inkscape:current-layer="layer1" />
  <g
     inkscape:groupmode="layer"
     id="layer1"
     inkscape:label="Layer 1">
    <path
       inkscape:connector-curvature="0"
       style="fill:#272822;stroke-width:1"
       d="m 13.537681,272.5537 232.939989,105.67 c 6.80002,3.08999 14.49,3.08999 21.29001,0 l 232.94006,-105.67 c 16.5499,-7.51 16.5499,-32.52 0,-40.03 L 267.77769,126.84369 c -6.76032,-3.08995 -14.52969,-3.08995 -21.29001,0 L 13.537681,232.5137 c -16.5499997,7.51 -16.5499997,32.53 0,40.04 z"
       id="path860-3"
       sodipodi:nodetypes="ccccccccc" />
    <path
       inkscape:connector-curvature="0"
       style="fill:#272822;stroke-width:1;fill-opacity:0.66666669"
       d="m 13.952358,162.8177 232.939992,105.67 c 6.80002,3.08999 14.49,3.08999 21.29001,0 l 232.94006,-105.67 c 16.54991,-7.51 16.54991,-32.52 0,-40.03 L 268.19237,17.107688 c -6.76033,-3.08995 -14.5297,-3.08995 -21.29001,0 L 13.952358,122.7777 c -16.55,7.51 -16.55,32.53 0,40.04 z"
       id="path860-3-3"
       sodipodi:nodetypes="ccccccccc" />
    <path
       inkscape:connector-curvature="0"
       style="fill:#272822;fill-opacity:0.66666667;stroke-width:1"
       d="m 16.682434,393.05427 232.939986,105.67 c 6.80002,3.08999 14.49,3.08999 21.29001,0 l 232.94006,-105.67 c 16.54991,-7.51 16.54991,-32.52 0,-40.03 L 270.92244,247.34426 c -6.76033,-3.08995 -14.5297,-3.08995 -21.29001,0 L 16.682434,353.01427 c -16.54999964,7.51 -16.54999964,32.53 0,40.04 z"
       id="path860-3-3-5"
       sodipodi:nodetypes="ccccccccc" />
  </g>
</svg>
