<?xml version="1.0" encoding="UTF-8" standalone="no"?>
<svg
   xmlns:dc="http://purl.org/dc/elements/1.1/"
   xmlns:cc="http://creativecommons.org/ns#"
   xmlns:rdf="http://www.w3.org/1999/02/22-rdf-syntax-ns#"
   xmlns:svg="http://www.w3.org/2000/svg"
   xmlns="http://www.w3.org/2000/svg"
   xmlns:sodipodi="http://sodipodi.sourceforge.net/DTD/sodipodi-0.dtd"
   xmlns:inkscape="http://www.inkscape.org/namespaces/inkscape"
   aria-hidden="true"
   data-prefix="fas"
   data-icon="thumbtack"
   class="svg-inline--fa fa-thumbtack fa-w-12"
   role="img"
   viewBox="0 0 384 512"
   height="60"
   width="30"
   version="1.1"
   id="svg862"
   sodipodi:docname="sticky_inactive.svg"
   inkscape:version="0.92.2 2405546, 2018-03-11">
  <metadata
     id="metadata868">
    <rdf:RDF>
      <cc:Work
         rdf:about="">
        <dc:format>image/svg+xml</dc:format>
        <dc:type
           rdf:resource="http://purl.org/dc/dcmitype/StillImage" />
      </cc:Work>
    </rdf:RDF>
  </metadata>
  <defs
     id="defs866" />
  <sodipodi:namedview
     pagecolor="#ffffff"
     bordercolor="#666666"
     borderopacity="1"
     objecttolerance="10"
     gridtolerance="10"
     guidetolerance="10"
     inkscape:pageopacity="0"
     inkscape:pageshadow="2"
     inkscape:window-width="2552"
     inkscape:window-height="1348"
     id="namedview864"
     showgrid="false"
     inkscape:zoom="13.116831"
     inkscape:cx="-11.923793"
     inkscape:cy="35.198223"
     inkscape:window-x="0"
     inkscape:window-y="42"
     inkscape:window-maximized="1"
     inkscape:current-layer="svg862" />
  <path
     fill="#665e49"
     d="M298.028 214.267L285.793 96H328c13.255 0 24-10.745 24-24V24c0-13.255-10.745-24-24-24H56C42.745 0 32 10.745 32 24v48c0 13.255 10.745 24 24 24h42.207L85.972 214.267C37.465 236.82 0 277.261 0 328c0 13.255 10.745 24 24 24h136v104.007c0 1.242.289 2.467.845 3.578l24 48c2.941 5.882 11.364 5.893 14.311 0l24-48a8.008 8.008 0 0 0 .845-3.578V352h136c13.255 0 24-10.745 24-24-.001-51.183-37.983-91.42-85.973-113.733z"
     id="path860" />
  <path
     style="fill:none;fill-opacity:0.94117647;stroke:#272822;stroke-width:48.37795258;stroke-linecap:butt;stroke-linejoin:miter;stroke-miterlimit:4;stroke-dasharray:none;stroke-opacity:0.94117647"
     d="m 271.64225,473.17248 c 7.21699,-28.00375 56.10351,-41.07058 65.9855,-52.36429"
     id="path1472"
     inkscape:connector-curvature="0"
     sodipodi:nodetypes="cc" />
  <path
     style="fill:none;fill-opacity:0.94117647;stroke:#272822;stroke-width:48.37795258;stroke-linecap:butt;stroke-linejoin:miter;stroke-miterlimit:4;stroke-dasharray:none;stroke-opacity:0.94117647"
     d="m 113.32984,472.58897 c -7.217,-28.00375 -56.103513,-41.07058 -65.985503,-52.36429"
     id="path1472-6"
     inkscape:connector-curvature="0"
     sodipodi:nodetypes="cc" />
</svg>
